<svg xmlns="http://www.w3.org/2000/svg" xmlns:xlink="http://www.w3.org/1999/xlink" width="71" height="57" viewBox="0 0 71 57">
  <defs>
    <style>
      .cls-1 {
        fill-rule: evenodd;
        filter: url(#filter);
      }
    </style>
    <filter id="filter" x="865" y="2122" width="71" height="57" filterUnits="userSpaceOnUse">
      <feFlood result="flood" flood-color="#7c9398"/>
      <feComposite result="composite" operator="in" in2="SourceGraphic"/>
      <feBlend result="blend" in2="SourceGraphic"/>
    </filter>
  </defs>
  <path id="Forma_1" data-name="Forma 1" class="cls-1" d="M936,2160.09c0-4.72-10.832-7-17.288-7.94a1.014,1.014,0,0,0-.761.2,9.325,9.325,0,0,0-3.92-3.37,4.724,4.724,0,0,0-2.973-.05,6.45,6.45,0,0,0-2.671-5.43c-3.114-2-7.416,1.76-7.607,1.93-0.062.06-.295,0.28-0.647,0.63a0.11,0.11,0,0,1-.05-0.02,21.031,21.031,0,0,0-8.662.33,27.87,27.87,0,0,0-9.806,4.4l0.14-5.89c5.2-1.98,8.767-9.48,8.767-18.64,0-2.62-6.057-4.24-11.668-4.24-11.743,0-12.654,3.25-12.654,4.24a28.819,28.819,0,0,0,1.1,8.09,0.476,0.476,0,0,0,.009.23c0.006,0.02.141,0.42,0.412,1.05a19.2,19.2,0,0,0,2.042,4.13,0.415,0.415,0,0,0,.113.18c0.007,0.01.015,0.01,0.022,0.02q0.432,0.63.907,1.2a0.6,0.6,0,0,0,.061.09c0.012,0.01.028,0.01,0.042,0.02a11.579,11.579,0,0,0,5.387,3.65l-0.169,8.41c-5.153,1.2-10.507,3.19-11,6.31a0.965,0.965,0,0,0-.126.47v4.18c0,0.01,0,.02,0,0.03s0,0.02,0,.03c0,2.52,3.2,4.6,9.517,6.21a1,1,0,0,0,.254.61c4.377,4.77,14.773,7.85,26.485,7.85,12.872,0,23.854-3.65,27.445-9.08,4.842-1.52,7.295-3.39,7.295-5.59a0.016,0.016,0,0,1,0-.01c0-.01,0-0.03,0-0.04v-4.19h0Zm-2,0c0,2.39-8.033,5.51-21.718,6.7a5.107,5.107,0,0,0,1.241-1.1c0.081-.1.155-0.21,0.226-0.31,5.305-.58,13.878-1.98,13.878-4.91,0-1.52-2.325-2.8-6.911-3.81a0.631,0.631,0,0,0-.194,0c-0.4-.81-0.848-1.64-1.327-2.43C929.36,2155.8,934,2158.35,934,2160.09Zm-19.4-.03a17.959,17.959,0,0,0-1.141-4.01,7.837,7.837,0,0,1,1.56,2.19A3.625,3.625,0,0,1,914.6,2160.06Zm1.209-.3c0.094,0.19.189,0.39,0.284,0.59a4.56,4.56,0,0,1-1.365,1.57c0-.17,0-0.34,0-0.51A3.286,3.286,0,0,0,915.813,2159.76Zm-1.184,3.32a4.518,4.518,0,0,0,1.967-1.65c0.354,0.79.7,1.61,1.021,2.43-1.016.17-2.12,0.32-3.318,0.46A6.328,6.328,0,0,0,914.629,2163.08Zm-1.185-8.11c-1.251-.27-2.3.82-3.421,1.98a10.669,10.669,0,0,1-2.713,2.27,0.416,0.416,0,0,0-.166.14,11.96,11.96,0,0,0-1.133-.57,22.834,22.834,0,0,0,3.656-3.03c1.217-1.14,2.6-2.44,3.212-2.54,0.9,0.18,3.864,5.42,6.213,10.38l-0.468.09C917.7,2161.31,915.209,2155.34,913.444,2154.97Zm-2.508,7.9a1.356,1.356,0,0,1-.844.02c-0.023-.1-0.052-0.2-0.082-0.31a0.42,0.42,0,0,0,.059-0.12,3.23,3.23,0,0,1,2.145-1.61c0.02,0.2.032,0.4,0.036,0.61a0.489,0.489,0,0,0-.216.22A2.078,2.078,0,0,1,910.936,2162.87Zm0.988,0.58a3.3,3.3,0,0,1-.5.85,3.467,3.467,0,0,1-1.484,1,4.716,4.716,0,0,0,.245-1.38,2.993,2.993,0,0,0,.311.02,2.387,2.387,0,0,0,.758-0.13A2.513,2.513,0,0,0,911.924,2163.45ZM910,2160.91a5.275,5.275,0,0,1,1.865-1.91c0.073,0.27.143,0.56,0.2,0.86A5.856,5.856,0,0,0,910,2160.91Zm-1.035-.14a6.573,6.573,0,0,0-.919-0.83,12.611,12.611,0,0,0,2.7-2.3c0.165-.17.325-0.34,0.483-0.5,0.055,0.13.187,0.45,0.338,0.88A6.158,6.158,0,0,0,908.967,2160.77Zm3.89-8.54a0.292,0.292,0,0,0-.093.01c-0.963.14-2.27,1.38-3.785,2.8a17.164,17.164,0,0,1-4.007,3.17,0.535,0.535,0,0,0-.177.13c-0.393-.13-0.8-0.25-1.238-0.37a30.152,30.152,0,0,0,3.687-2.97c1.97-1.75,4.008-3.57,5.574-3.7,1.764-.15,5.628,6.72,7.976,11.95-0.225.05-.455,0.1-0.693,0.15C918.052,2159.04,914.581,2152.23,912.857,2152.23Zm-4.089,9.96a3.505,3.505,0,0,1,.023,3.28,0.509,0.509,0,0,0-.039.12c-0.1.01-.2,0.03-0.309,0.04a0.5,0.5,0,0,0,.093-0.23,4.6,4.6,0,0,0-1.329-3.34c-2.009-2.22-5.892-3.37-11.537-3.45,0.131-.24.268-0.49,0.409-0.73a0.519,0.519,0,0,0,.245.09C904.939,2158.43,907.846,2160.52,908.768,2162.19Zm-2.813,1.21c-1.179-1.35-4.032-3.05-10.9-3.54,0.04-.09.082-0.17,0.122-0.26,6.956,0.01,9.962,1.69,11.257,3.09a3.658,3.658,0,0,1,1.106,2.61,0.5,0.5,0,0,0,.114.37c-0.273,0-.555-0.01-0.852-0.02a0.546,0.546,0,0,0,.047-0.18A3.012,3.012,0,0,0,905.955,2163.4Zm-11.456-2.12c0.056-.16.115-0.32,0.177-0.49a0.734,0.734,0,0,0,.15.05c10.961,0.74,11.03,4.49,11.029,4.57a0.487,0.487,0,0,0,.022.15c-0.309-.04-0.628-0.09-0.959-0.15a1.47,1.47,0,0,0-.308-0.77C903.879,2163.64,901.528,2162.25,894.5,2161.28Zm9.274,3.91c-0.164-.04-0.327-0.08-0.5-0.12-0.588-.3-5.215-2.6-9.084-2.75,0.007-.03.012-0.06,0.02-0.09,0.027,0.01.051,0.02,0.081,0.03C901.521,2163.24,903.325,2164.6,903.773,2165.19Zm-7.159-8.2c0.549-.86,1.145-1.7,1.764-2.5h0.008c0.135,0.01.251,0.03,0.376,0.05a3.916,3.916,0,0,0-1.02,2.53C897.376,2157.04,897,2157.02,896.614,2156.99Zm4.9-.63a4.194,4.194,0,0,1-1.4.88,0.537,0.537,0,0,0-.128.06c-0.4-.05-0.81-0.1-1.231-0.14a3.254,3.254,0,0,1,1.133-2.38,2.513,2.513,0,0,1,1.47.88A0.894,0.894,0,0,1,901.514,2156.36Zm-2.417-2.77a0.427,0.427,0,0,1,.055-0.07,0.433,0.433,0,0,0,.115.02c1.539,0.02,2.564.33,2.965,0.92a1.287,1.287,0,0,1,.154,1.02,2.265,2.265,0,0,0-.172-0.34A4.35,4.35,0,0,0,899.1,2153.59Zm1.476-.94a4.037,4.037,0,0,1,2.849.56,1.65,1.65,0,0,1,.581.82c-0.1.09-.194,0.19-0.291,0.28l-0.339.33a2.143,2.143,0,0,0-.3-0.72A3.416,3.416,0,0,0,900.573,2152.65Zm0.221-1.01c0.239-.26.475-0.51,0.705-0.75,1.817,0.45,3.522.97,4.474,1.28-0.41.36-.813,0.74-1.206,1.12a2.73,2.73,0,0,0-.7-0.84A4.764,4.764,0,0,0,900.794,2151.64Zm1.51-1.57c0.205-.21.4-0.4,0.6-0.59,1.932,0.5,3.628,1.08,4.58,1.42-0.211.17-.422,0.34-0.63,0.51C906.219,2151.2,904.381,2150.6,902.3,2150.07Zm1.443-1.39c0.25-.23.476-0.43,0.677-0.61a34.155,34.155,0,0,1,4.59,1.78q-0.285.165-.565,0.36C907.844,2149.98,906,2149.3,903.747,2148.68Zm1.557-1.37a0.15,0.15,0,0,1,.051-0.04,1.4,1.4,0,0,1,1.159-.34,1.6,1.6,0,0,1,.783,1.09C906.7,2147.79,906.032,2147.55,905.3,2147.31Zm3.152,1.19-0.153-.06a0.5,0.5,0,0,0,.048-0.35,2.64,2.64,0,0,0-1.528-2.11,2.476,2.476,0,0,0-2.1.52,51.157,51.157,0,0,0-6.085,6.07c-3.84,4.56-5.781,8.7-5.782,12.31-0.1-.01-0.188-0.01-0.282-0.02,0.322-10.08,11.164-18.18,11.268-18.25,0.662-.47,2.614-1.54,3.7-0.95C908.335,2146.09,908.485,2147.39,908.456,2148.5Zm-14.548,15.37c0.02-.19.051-0.38,0.082-0.57,3.845,0.08,8.826,2.65,8.877,2.68a0.447,0.447,0,0,0,.113.04,19.577,19.577,0,0,0,4.546.63c2.15,0,3.713-.57,4.67-1.72,2.375-2.85.013-8.04-.088-8.26a0.512,0.512,0,0,0-.167-0.19,3.3,3.3,0,0,1,.47-0.35,14.244,14.244,0,0,1,1.273,6.51l0,0.02a5.016,5.016,0,0,1-.614,1.93,0.5,0.5,0,0,0-.1.17,3.27,3.27,0,0,1-.224.32c-1.589,1.99-5.1,2.41-10.429,1.23-0.841-.33-1.546-0.62-2.171-0.88A14.892,14.892,0,0,0,893.908,2163.87Zm1.545,1.12-1.6-.06v-0.07C894.457,2164.88,894.978,2164.93,895.453,2164.99Zm27.571-2.33c-0.292-.85-0.979-2.76-1.972-4.91,4.094,0.97,5.579,2.03,5.579,2.72C926.631,2161.12,925.468,2161.91,923.024,2162.66Zm-9.337-12.75c4.158,1.51,7.6,10.8,8.375,13.03-0.092.02-.188,0.05-0.282,0.07-1.274-2.85-5.891-12.7-8.934-12.7h-0.112c-1.9.16-3.97,2-6.159,3.96a22.948,22.948,0,0,1-4.26,3.28,0.434,0.434,0,0,0-.147.11c-0.184-.04-0.374-0.07-0.565-0.11a27.351,27.351,0,0,0,2.811-2.53C907.232,2152.26,910.738,2148.84,913.687,2149.91Zm-12.232-3.74c0.039-.04,3.9-3.43,6.389-1.84,2.1,1.35,2.23,4.02,2.211,4.92-0.15-.08-0.366-0.18-0.641-0.31a0.518,0.518,0,0,0,.033-0.13c0.105-2.1-.376-3.45-1.43-4.02-1.846-1.01-4.638.93-4.764,1.02a36.291,36.291,0,0,0-5.836,5.63c-2.592,3.11-5.656,7.91-5.842,13.36l-0.91-.06C889.6,2157.35,901.344,2146.27,901.455,2146.17Zm-11.811,18.49c-0.618-.05-1.219-0.11-1.8-0.17a2.546,2.546,0,0,1,1.8-1.6A8.507,8.507,0,0,0,889.644,2164.66Zm-2.852-.28-0.532-.06a5.317,5.317,0,0,1,3.617-2.88c-0.036.15-.063,0.3-0.092,0.46a0.021,0.021,0,0,0-.021-0.01C889.679,2161.89,887.921,2161.85,886.792,2164.38Zm-1.577-.19c-0.2-.03-0.393-0.05-0.584-0.08a7.617,7.617,0,0,1,5.728-4.29c-0.069.19-.133,0.38-0.194,0.58A6.221,6.221,0,0,0,885.215,2164.19Zm-1.616-.23-0.581-.09c1.82-5.2,8.019-5.88,8.084-5.88,0.009,0,.018-0.01.027-0.01-0.125.26-.243,0.52-0.355,0.79A8.846,8.846,0,0,0,883.6,2163.96Zm-1.81-6.45c0.2-.19.39-0.38,0.583-0.57a7.193,7.193,0,0,1-.726,6.69q-0.542-.105-1.048-0.21A8.271,8.271,0,0,0,881.789,2157.51Zm-2.229,5.69c-0.8-.19-1.521-0.39-2.156-0.59a48.791,48.791,0,0,1,3.5-4.19A7.758,7.758,0,0,1,879.56,2163.2Zm2.794-7.56c-0.017.01-.034,0.01-0.051,0.02a0.51,0.51,0,0,0-.2.21c-0.376.35-.74,0.7-1.091,1.06a0.463,0.463,0,0,0-.227.22,49.177,49.177,0,0,0-4.377,5.12c-0.194-.07-0.374-0.14-0.546-0.21,5.453-9.58,13.974-13.28,20.143-13.54a13.162,13.162,0,0,1,1.752.04c-0.164.18-.331,0.37-0.5,0.56-0.4-.03-0.768-0.05-1.094-0.05a17.42,17.42,0,0,0-8.347,2.52h-0.01c-0.562.33-1.111,0.67-1.647,1.03a0.684,0.684,0,0,0-.2.13c-0.477.33-.942,0.67-1.4,1.03a0.438,0.438,0,0,0-.234.18c-0.371.29-.733,0.59-1.086,0.89a0.518,0.518,0,0,0-.16.09,0.413,0.413,0,0,0-.108.15C882.766,2155.27,882.558,2155.46,882.354,2155.64Zm6.248-3.34c0.167-.09.33-0.18,0.493-0.26,0.559,1.66,2.826,2.42,3.876,2.68-0.073.11-.145,0.22-0.216,0.34C891.617,2154.81,889.044,2153.91,888.6,2152.3Zm3.613,3.64c-0.254.44-.5,0.87-0.727,1.31A0.509,0.509,0,0,0,891,2157c-0.013,0-.24.03-0.613,0.1a3.641,3.641,0,0,0-.986-2.36A9.74,9.74,0,0,0,892.215,2155.94Zm-9.062.28c0.127-.12.253-0.23,0.379-0.34a3.31,3.31,0,0,1,2.206,3.07,9.851,9.851,0,0,0-1.9,1.62A8.7,8.7,0,0,0,883.153,2156.22Zm1.227-1.05c0.143-.12.286-0.24,0.428-0.35,0.734,0.38,2.711,1.54,2.584,3.22-0.236.11-.474,0.23-0.715,0.35A4.158,4.158,0,0,0,884.38,2155.17Zm1.295-1.01c0.236-.17.469-0.33,0.7-0.49,0.8,0.42,3.205,1.84,2.993,3.67-0.3.08-.631,0.18-0.981,0.3C888.255,2155.92,886.656,2154.73,885.675,2154.16Zm1.638-1.11c0.138-.08.275-0.17,0.412-0.25a3.261,3.261,0,0,0,.434.81C887.857,2153.39,887.564,2153.2,887.313,2153.05ZM890,2151.6c0.275-.12.544-0.24,0.808-0.34a1.784,1.784,0,0,0,.23.51,5.1,5.1,0,0,0,2.848,1.59c-0.11.16-.218,0.32-0.326,0.47C893,2153.72,890.356,2153.08,890,2151.6Zm1.869-.38a0.731,0.731,0,0,1-.122-0.31c0.215-.08.423-0.14,0.628-0.21a1.634,1.634,0,0,0,.369.55,3.662,3.662,0,0,0,2.091.82l-0.317.42A4.926,4.926,0,0,1,891.869,2151.22Zm1.58-.67c-0.035-.04-0.052-0.08-0.077-0.11a12.947,12.947,0,0,1,2.808-.38c0.081,0,.175.01,0.261,0.01-0.289.34-.581,0.7-0.876,1.06A3.662,3.662,0,0,1,893.449,2150.55Zm-1.766-3.23a19.686,19.686,0,0,1,7.585-.38c-0.213.22-.44,0.45-0.684,0.71-0.024,0-.043-0.02-0.068-0.02a16.3,16.3,0,0,0-2.553-.1c-6.447.27-15.346,4.12-21,14.09a4.2,4.2,0,0,1-.487-0.32,0.127,0.127,0,0,0,.034-0.04C879.106,2152.88,883.118,2149.63,891.683,2147.32Zm-16.526-5.08,8.78-8.71c0.267,0.04.534,0.07,0.784,0.11l-8.982,8.91C875.543,2142.46,875.348,2142.35,875.157,2142.24Zm-1.355-.94,8.06-7.99c0.277,0.02.548,0.05,0.814,0.07l-8.375,8.31C874.132,2141.57,873.965,2141.44,873.8,2141.3Zm-1.164-1.13,7.041-6.98c0.006-.01.008-0.02,0.014-0.03,0.29,0.02.571,0.03,0.854,0.05l-7.476,7.41C872.924,2140.48,872.779,2140.33,872.638,2140.17Zm-1.009-1.29,5.775-5.72c0.242-.01.471-0.03,0.715-0.03,0.067,0,.131.01,0.2,0.01L872,2139.4C871.877,2139.23,871.751,2139.06,871.629,2138.88Zm-2.207-4.54c0.335-.1.7-0.18,1.047-0.28l-0.85.84C869.552,2134.72,869.484,2134.53,869.422,2134.34Zm3.963-.88-3.1,3.07c-0.093-.2-0.186-0.41-0.275-0.61l2.282-2.27C872.656,2133.58,873.011,2133.51,873.385,2133.46Zm-2.628,4,4.121-4.08a0.91,0.91,0,0,0,.058-0.09c0.336-.03.665-0.07,1.01-0.09l-4.865,4.83C870.97,2137.84,870.862,2137.66,870.757,2137.46Zm15.172-3.62h0c0.266,0.04.524,0.09,0.757,0.13l-9.248,9.18c-0.236-.06-0.469-0.12-0.7-0.2Zm-7.351,9.58-0.011.35v-0.34Zm-0.273.84c0.088,0,.173.01,0.262,0.01h0.018c0.333,0,.646-0.03.959-0.06a0.489,0.489,0,0,0,.228.08l-0.167,7.03a0.963,0.963,0,0,0,.387.8c-0.366.34-.723,0.7-1.073,1.07a0.987,0.987,0,0,0-.787-0.3Zm0.421-.99,8.542-8.47c-0.147.47-.3,0.92-0.473,1.36l-7.113,7.05A7.423,7.423,0,0,1,878.726,2143.27Zm2.782-.44a0.048,0.048,0,0,0-.035.01l4.024-3.99A9.855,9.855,0,0,1,881.508,2142.83ZM868.2,2126.24c0-.79,3.66-2.26,10.657-2.26,5.683,0,9.31,1.6,9.671,2.31,0,0.08,0,.16,0,0.23-1.285.77-5.113,1.69-10.161,1.69s-8.875-.92-10.16-1.69C868.2,2126.43,868.2,2126.34,868.2,2126.24Zm10.164,2.97c3.432,0,7.858-.5,10.132-1.58a29.117,29.117,0,0,1-.76,5.54,48.721,48.721,0,0,0-9.614-1.03c-0.283,0-.549.02-0.828,0.03a0.434,0.434,0,0,0-.2.01,29.081,29.081,0,0,0-7.959,1.22,25.957,25.957,0,0,1-.9-5.77C870.507,2128.71,874.931,2129.21,878.361,2129.21Zm-1.059,25.87a35.9,35.9,0,0,0-2.446,3.59,0.486,0.486,0,0,0-.611-0.07,2.353,2.353,0,0,0-1.347,1.87c0,1.09,1.262,2.02,3.384,2.8,0,0.01,0,.01.008,0.01a0.5,0.5,0,0,0,.283.09,28.507,28.507,0,0,0,3.01.85,0.465,0.465,0,0,0,.2.04h0q0.912,0.21,1.912.39a0.524,0.524,0,0,0,.175.03h0.006l0.33,0.06c0.011,0,.018.01,0.028,0.01a0.6,0.6,0,0,0,.132.02h0.013c0.456,0.07.922,0.15,1.4,0.22a0.577,0.577,0,0,0,.129.02h0.013c0.492,0.07,1,.14,1.51.2a0.176,0.176,0,0,0,.068.02c0.007,0,.013-0.01.021-0.01,0.5,0.07,1.006.13,1.522,0.18,0.021,0,.04.01,0.061,0.01h0.018c0.992,0.11,2.012.2,3.053,0.28,0.017,0,.033.01,0.05,0.01s0.017-.01.026-0.01c0.584,0.05,1.175.09,1.771,0.13h0.05c0.419,0.02.839,0.05,1.262,0.07,0.009,0,.017.01,0.026,0.01a0.033,0.033,0,0,0,.028-0.01h0c1.736,0.09,3.5.15,5.267,0.17h0.006a0.478,0.478,0,0,0,.235-0.07c0.268,0.11.55,0.23,0.853,0.35,0.639,0.27,1.361.57,2.228,0.91a0.2,0.2,0,0,1,.072.02h0.013c-0.5.01-1.011,0.01-1.526,0.01-20.731,0-33.461-4.18-33.461-7.18C867.081,2158.79,869.786,2156.73,877.3,2155.08Zm23.954,21.94c-9.679,0-18.618-2.24-23.322-5.72a121.949,121.949,0,0,0,22.564,1.91,115.55,115.55,0,0,0,24.619-2.34c0.018,0,.035-0.01.054-0.01C920.716,2174.57,911.526,2177.02,901.256,2177.02ZM934,2164.33c0,2.88-12.744,6.89-33.5,6.89s-33.5-4.01-33.5-6.89c0-.01,0-0.02,0-0.03s0-.02,0-0.03v-1.04c5.114,3.94,19.678,6.03,33.545,6.03,13.794,0,28.275-2.07,33.461-5.97v0.99C934,2164.3,934,2164.32,934,2164.33Z" transform="translate(-865 -2122)"/>
</svg>
