<svg xmlns="http://www.w3.org/2000/svg" xmlns:xlink="http://www.w3.org/1999/xlink" width="69" height="49" viewBox="0 0 69 49">
  <defs>
    <style>
      .cls-1 {
        fill-rule: evenodd;
        filter: url(#filter);
      }
    </style>
    <filter id="filter" x="1080" y="2126" width="69" height="49" filterUnits="userSpaceOnUse">
      <feFlood result="flood" flood-color="#7c9398"/>
      <feComposite result="composite" operator="in" in2="SourceGraphic"/>
      <feBlend result="blend" in2="SourceGraphic"/>
    </filter>
  </defs>
  <path id="Forma_1" data-name="Forma 1" class="cls-1" d="M1148.93,2145.41a1.344,1.344,0,0,0-.07-0.4,4.591,4.591,0,0,0-2.62-2.82,0.01,0.01,0,0,0-.01-0.01,0.031,0.031,0,0,1,.01-0.02,4.72,4.72,0,0,0-3.93-5.68h-0.01v-0.02a4.462,4.462,0,0,0-1.64-3.34,5.393,5.393,0,0,0-4.22-1.14h-0.01a0.425,0.425,0,0,1-.02-0.11,4.494,4.494,0,0,0-2.43-2.81,4.967,4.967,0,0,0-4.01-.14,0.251,0.251,0,0,1-.04-0.07,4.531,4.531,0,0,0-3.1-2.12,5.9,5.9,0,0,0-4.24.73,6.079,6.079,0,0,0-4.39-1.45,4.774,4.774,0,0,0-3.49,1.85,3.366,3.366,0,0,0-.64,2.69l0.07,0.99c-0.79.57-5.51,4.08-15.28,14.18a197.089,197.089,0,0,0-18.63,23.1,0.076,0.076,0,0,0-.02.04,1.4,1.4,0,0,0-.15.3c0,0.01-.01.02-0.01,0.03a1.345,1.345,0,0,0-.05.35v0.09a0.41,0.41,0,0,0,.01.11l0.52,4.09a1.37,1.37,0,0,0,.55.91,1.335,1.335,0,0,0,.79.26,1.942,1.942,0,0,0,.24-0.02c0.18-.03,17.82-3.19,34.98-7.79a203.88,203.88,0,0,0,27.87-10.55c3.84-2.01,3.91-4.48,4.02-8.21l0.02-.69v-0.09Zm-35.06-5.48c3.6,0,6.53,2.13,6.53,4.74s-2.93,4.74-6.53,4.74-6.53-2.12-6.53-4.74S1110.27,2139.93,1113.87,2139.93Zm-13.06,7.66c1.42-1.47,2.72-2.78,3.93-3.98a6.247,6.247,0,0,0-.11,1.06c0,4.1,4.14,7.44,9.24,7.44s9.23-3.34,9.23-7.44-4.14-7.44-9.23-7.44a10.893,10.893,0,0,0-2.77.35c2.21-1.98,3.61-3.09,4.26-3.59,13.87,2.52,20.72,8.75,23.84,12.84a9.73,9.73,0,0,0-4.32-.98c-4.58,0-8.3,3.02-8.3,6.72a5.85,5.85,0,0,0,1.17,3.44c-2.3.85-4.86,1.71-7.69,2.52-2.68.78-5.71,1.6-8.86,2.42v-0.12c0-3.7-3.72-6.72-8.29-6.72s-8.3,3.02-8.3,6.72a5.9,5.9,0,0,0,1.53,3.88c-4.74,1.15-8.92,2.13-11.67,2.76A189.636,189.636,0,0,1,1100.81,2147.59Zm31.35,11.58,3.58-3.57c1.64-.77,3.02-1.48,4.15-2.09l-4.31,4.29C1134.49,2158.25,1133.35,2158.7,1132.16,2159.17Zm-6.05,2.27,3.13-3.11c1.08-.41,2.11-0.82,3.08-1.22l-3.26,3.25C1128.08,2160.72,1127.1,2161.09,1126.11,2161.44Zm-3.48-.78a0.7,0.7,0,0,0,.08-0.1c1.23-.38,2.41-0.77,3.53-1.15l-2.84,2.84a0.718,0.718,0,0,0-.14.2c-1.23.42-2.44,0.81-3.6,1.18Zm7.79-5.7a3.294,3.294,0,0,1-1.13-2.39c0-2.22,2.51-4.02,5.59-4.02a6.276,6.276,0,0,1,4.79,1.98A78.455,78.455,0,0,1,1130.42,2154.96Zm-19.18,10.96c-1.2.3-2.39,0.6-3.58,0.88l2.92-2.91c1.22-.31,2.42-0.63,3.59-0.94l-2.83,2.82A1.3,1.3,0,0,0,1111.24,2165.92Zm-24.53,5.45,2.09-2.09a0.209,0.209,0,0,0,.04-0.06c0.87-.2,1.79-0.42,2.76-0.65l-2.29,2.28C1088.38,2171.04,1087.5,2171.21,1086.71,2171.37Zm6.96-2.96a0.643,0.643,0,0,0,.18-0.38c0.94-.22,1.92-0.46,2.92-0.7l-2.5,2.5h0c-0.89.18-1.74,0.36-2.56,0.53Zm14.78-7.04a1.464,1.464,0,0,0-.02.29c-3.09.79-6.23,1.58-9.23,2.31a1.33,1.33,0,0,0-.35-0.4,3.487,3.487,0,0,1-1.53-2.74c0-2.22,2.51-4.02,5.59-4.02s5.59,1.8,5.59,4.02A2.469,2.469,0,0,1,1108.45,2161.37Zm-9.61,5.8a0.643,0.643,0,0,0,.18-0.38c1.04-.26,2.1-0.52,3.17-0.78l-2.04,2.04a0.64,0.64,0,0,0-.19.54c-1.12.25-2.21,0.49-3.26,0.72Zm5.9-1.79c1.09-.28,2.18-0.55,3.27-0.83l-2.36,2.35a0.7,0.7,0,0,0-.19.43c-1.18.28-2.35,0.55-3.49,0.81Zm-21.9,5.23c0.82-.19,2.03-0.46,3.53-0.81l-2.03,2.03c-0.49.09-.94,0.17-1.31,0.24Zm30.91-5.33,3.04-3.04c1.13-.3,2.22-0.61,3.26-0.9l-2.84,2.83a0.651,0.651,0,0,0-.15.23c-0.23.06-.45,0.12-0.67,0.18C1115.51,2164.82,1114.63,2165.05,1113.75,2165.28Zm32.53-16.93c-0.11,3.65-.13,4.63-2.57,5.9-0.81.43-2.56,1.22-4.86,2.2l5.23-5.22a0.67,0.67,0,0,0,.02-0.93,1.4,1.4,0,0,0-.06-0.53c-0.2-.57-5.06-13.85-27.19-18.23l-0.09-1.28-0.03-.21a0.8,0.8,0,0,1,.16-0.6,2.069,2.069,0,0,1,1.52-.75,2.82,2.82,0,0,1,2.53,1,1.379,1.379,0,0,0,.34.99,1.332,1.332,0,0,0,.95.46l0.29,0.01a1.322,1.322,0,0,0,.98-0.35,1.358,1.358,0,0,0,.45-0.94,0.3,0.3,0,0,1,.12-0.15,3.113,3.113,0,0,1,2.25-.34,1.888,1.888,0,0,1,1.27.81,0.856,0.856,0,0,1,.1.68,1.341,1.341,0,0,0,.06,1.04,1.378,1.378,0,0,0,.79.69l0.28,0.09a1.39,1.39,0,0,0,1.04-.08,1.375,1.375,0,0,0,.68-0.8,0.757,0.757,0,0,1,.45-0.4,2.274,2.274,0,0,1,1.82.08,1.786,1.786,0,0,1,.99,1.09,0.854,0.854,0,0,1-.08.68,1.359,1.359,0,0,0,.39,1.89l0.24,0.15a1.345,1.345,0,0,0,1.88-.41,1,1,0,0,1,.62-0.25,2.748,2.748,0,0,1,2.06.53,1.786,1.786,0,0,1,.69,1.31,0.837,0.837,0,0,1-.25.64,1.33,1.33,0,0,0-.46.94,1.316,1.316,0,0,0,.36.98l0.17,0.2a1.354,1.354,0,0,0,1.94.1,0.78,0.78,0,0,1,.66-0.18,1.8,1.8,0,0,1,1.26.83,1.824,1.824,0,0,1,.34,1.49,0.852,0.852,0,0,1-.39.55,1.33,1.33,0,0,0-.69.78,1.39,1.39,0,0,0,.08,1.04l0.14,0.27a1.367,1.367,0,0,0,1.84.58,0.76,0.76,0,0,1,.66,0,1.842,1.842,0,0,1,.98,1.03l0.06,1.97Z" transform="translate(-1080 -2126)"/>
</svg>
