<svg xmlns="http://www.w3.org/2000/svg" xmlns:xlink="http://www.w3.org/1999/xlink" width="73" height="56" viewBox="0 0 73 56">
  <defs>
    <style>
      .cls-1 {
        fill-rule: evenodd;
        filter: url(#filter);
      }
    </style>
    <filter id="filter" x="444" y="2122" width="73" height="56" filterUnits="userSpaceOnUse">
      <feFlood result="flood" flood-color="#fff"/>
      <feComposite result="composite" operator="in" in2="SourceGraphic"/>
      <feBlend result="blend" in2="SourceGraphic"/>
    </filter>
  </defs>
  <path id="Forma_1" data-name="Forma 1" class="cls-1" d="M506.39,2136.49c-0.552-5.09-6.878-9.01-17.549-10.84a1.2,1.2,0,0,0-.189-0.01,14.761,14.761,0,0,0-10.008-3.64,14.983,14.983,0,0,0-9.5,3.19h-0.225c-13.39,1.44-21.382,5.94-21.382,12.04,0,4.41,3.606,8.4,9.987,11.19a56.364,56.364,0,0,0-5.308,2.22c-2.45,1.12-4.763,2.18-6.289,2.25a1.105,1.105,0,0,0-.851.44,4.993,4.993,0,0,0-1.007,3.66,4.648,4.648,0,0,0,1.377,2.28,5.415,5.415,0,0,1,.881,1.11,5.512,5.512,0,0,1,.234,2.83,1.142,1.142,0,0,0,.462,1.11,1.125,1.125,0,0,0,.656.21,1.044,1.044,0,0,0,.539-0.14c0.094-.05,9.423-5.1,15.159-6.05,0.041,0,.095-0.01.14-0.01a42.5,42.5,0,0,0-6.117,4.99c-1.981,1.83-3.851,3.57-5.283,4.11a1.141,1.141,0,0,0-.672.69,4.972,4.972,0,0,0,.174,3.79,4.612,4.612,0,0,0,2.012,1.73,5.614,5.614,0,0,1,1.18.78,5.53,5.53,0,0,1,1.1,2.62,1.138,1.138,0,0,0,.783.91,1.276,1.276,0,0,0,.335.05,1.136,1.136,0,0,0,.822-0.36c0.073-.08,7.372-7.8,12.537-10.5a16.024,16.024,0,0,1,5.536-1.7,20.112,20.112,0,0,0,8.478-3.09,26.547,26.547,0,0,0,7.188-6.66,17.094,17.094,0,0,1,2.953-3.13,1.238,1.238,0,0,0,.187.08,25.808,25.808,0,0,0,6.98.94c8.573,0,15.288-3.85,15.288-8.75C517,2140.91,512.776,2137.62,506.39,2136.49Zm-27.746-12.21c5.932,0,10.758,3.5,10.758,7.8,0,2.2-4.7,4.75-10.758,4.75-6.216,0-10.759-3.34-10.759-4.75C467.885,2127.78,472.711,2124.28,478.644,2124.28Zm-32.327,32.32a0.74,0.74,0,0,1-.032-0.1,2.314,2.314,0,0,1,.347-1.39,26.114,26.114,0,0,0,6.528-2.39,36.46,36.46,0,0,1,7.366-2.79,23.516,23.516,0,0,1,7.253,0,26.105,26.105,0,0,0,8.178-.04,41.476,41.476,0,0,0,9.174-3.63c1.139-.56,2.238-1.09,3.21-1.51-0.8.71-1.665,1.55-2.589,2.46-0.6.58-1.229,1.19-1.869,1.8a14.712,14.712,0,0,1-6.234,2.1,57.669,57.669,0,0,1-7.7-.18c-3.623-.25-7.046-0.48-9.4.2C456.9,2152.18,448,2155.89,446.317,2156.6Zm0.776,1.09c-0.047-.05-0.082-0.08-0.124-0.13,2.1-.88,10.488-4.36,13.892-5.34,2.164-.62,5.491-0.39,9.013-0.16a56.671,56.671,0,0,0,7.861.18,13.248,13.248,0,0,0,3.172-.64,20.3,20.3,0,0,1-2.3,1.59c-0.259.15-.52,0.29-0.784,0.41a83.336,83.336,0,0,1-8.34-.17c-2.4-.12-4.673-0.24-6.387-0.19-3.948.12-11.926,4.41-14.794,6.02A7.629,7.629,0,0,0,447.093,2157.69Zm15.923-1.6c-4.609.76-11.063,3.83-14.131,5.39a7.072,7.072,0,0,0-.173-1.14c2.668-1.5,10.7-5.84,14.417-5.96,1.67-.05,3.917.07,6.295,0.19,1.757,0.09,3.543.18,5.208,0.22-1.021.28-2.069,0.52-3.144,0.75-0.822.18-1.654,0.37-2.484,0.58A33.35,33.35,0,0,0,463.016,2156.09Zm-9.383,14.74c-0.019-.03-0.041-0.05-0.059-0.08a2.311,2.311,0,0,1-.1-1.43,25.843,25.843,0,0,0,5.464-4.32,37.039,37.039,0,0,1,6.139-4.96,23.552,23.552,0,0,1,6.894-2.27,26.213,26.213,0,0,0,7.76-2.6,41.923,41.923,0,0,0,7.6-6.32,27.5,27.5,0,0,1,4.388-3.81,43.4,43.4,0,0,1,7.434-2.69l0.416,0.77c-1.5.38-6.418,1.75-8.352,3.59a22.379,22.379,0,0,0-2.06,2.46c-1.76,2.3-3.95,5.17-7.441,6.62a54.153,54.153,0,0,1-7.373,2.24c-3.519.91-6.842,1.76-8.87,3.14C462.328,2163.31,455.016,2169.63,453.633,2170.83Zm2.708,1.91a7.243,7.243,0,0,0-1.631-1.11c-0.059-.03-0.106-0.06-0.16-0.09,1.727-1.49,8.623-7.43,11.554-9.42,1.865-1.27,5.1-2.1,8.516-2.98a58.136,58.136,0,0,0,7.526-2.29c3.77-1.58,6.062-4.57,7.9-6.98a21.977,21.977,0,0,1,1.942-2.33c1.86-1.77,7.229-3.16,8.131-3.39l0.685,1.28c0.037,0.06.089,0.13,0.132,0.2a26.88,26.88,0,0,0-6.758,1.85c-1.943.9-3.6,3.07-5.195,5.16a19.716,19.716,0,0,1-4.016,4.35c-1.96,1.29-6.392,2.5-10.3,3.57-2.321.64-4.513,1.24-6.127,1.83C464.827,2163.74,458.568,2170.31,456.341,2172.74Zm33.49-18.49a24.167,24.167,0,0,1-6.6,6.14,18,18,0,0,1-7.661,2.8,17.942,17.942,0,0,0-6.222,1.92c-4.147,2.17-9.332,7.11-11.767,9.55a7.4,7.4,0,0,0-.517-1.03c2.073-2.26,8.364-8.9,11.863-10.17,1.571-.57,3.742-1.17,6.039-1.8,4.187-1.14,8.517-2.33,10.626-3.72a20.237,20.237,0,0,0,4.293-4.61c1.515-1.98,3.081-4.03,4.77-4.81a26.9,26.9,0,0,1,7.081-1.85c0.315,0.34.662,0.68,1.012,0.99a36.175,36.175,0,0,0-7.475,1.9C492.838,2150.52,491.377,2152.33,489.831,2154.25Zm11.88-2.95a25.664,25.664,0,0,1-3.645-.28,44.329,44.329,0,0,1,7.685-1.44,1.124,1.124,0,0,0,1.01-.85,1.147,1.147,0,0,0-.483-1.24,12.838,12.838,0,0,1-3.478-3.16l-2.087-3.86a1.12,1.12,0,0,0-1.278-.56c-0.164.04-2.871,0.75-5.493,1.7a1.116,1.116,0,0,0-.568-0.14,25.269,25.269,0,0,0-3.307.31,27.224,27.224,0,0,0-5.926,2.43,39.37,39.37,0,0,1-8.64,3.45,24.129,24.129,0,0,1-7.492.01,28.91,28.91,0,0,0-6.782-.16,1.16,1.16,0,0,0-.4-0.25c-6.9-2.4-11.022-6.15-11.022-10.03,0-4.36,6.628-7.99,17.081-9.48a8.181,8.181,0,0,0-1.267,4.33c0,3.18,5.81,7.03,13.023,7.03,7.181,0,13.024-3.15,13.024-7.03a8.094,8.094,0,0,0-.934-3.74c8.457,1.8,13.431,5.06,13.431,8.89l-0.012.2a1.136,1.136,0,0,0,.977,1.17c5.565,0.78,9.605,3.4,9.605,6.23C514.734,2148.34,508.771,2151.3,501.711,2151.3Zm-30.454-21.74a0.568,0.568,0,0,0,.76-0.25c0.829-1.68,3.805-2.75,3.835-2.76a0.575,0.575,0,0,0,.345-0.73,0.567,0.567,0,0,0-.722-0.35c-0.14.05-3.437,1.24-4.471,3.33A0.567,0.567,0,0,0,471.257,2129.56Z" transform="translate(-444 -2122)"/>
</svg>
