<svg xmlns="http://www.w3.org/2000/svg" xmlns:xlink="http://www.w3.org/1999/xlink" width="78" height="47" viewBox="0 0 78 47">
  <defs>
    <style>
      .cls-1 {
        fill-rule: evenodd;
        filter: url(#filter);
      }
    </style>
    <filter id="filter" x="1284" y="2127" width="78" height="47" filterUnits="userSpaceOnUse">
      <feFlood result="flood" flood-color="#7c9398"/>
      <feComposite result="composite" operator="in" in2="SourceGraphic"/>
      <feBlend result="blend" in2="SourceGraphic"/>
    </filter>
  </defs>
  <path id="Forma_1" data-name="Forma 1" class="cls-1" d="M1361.82,2158.8c-1.38-4.29-6.44-4.64-12.09-4.46a9.693,9.693,0,0,0-.07-1.94,9.821,9.821,0,0,0-2.78-5.66,1.151,1.151,0,0,0-.17-0.14,5.283,5.283,0,0,0,.6-3.27,23.8,23.8,0,0,0-8.74-8,5.835,5.835,0,0,0-.73.05,5.325,5.325,0,0,0-3.54,2.08,5.383,5.383,0,0,0-1.04,3.98,5.1,5.1,0,0,0,.29,1.15,5.429,5.429,0,0,0-.9,4.52,1.119,1.119,0,0,0-.42.31,10.071,10.071,0,0,0-1.33,2.14,9.471,9.471,0,0,0-.74-1.16c-0.05-.06-0.1-0.11-0.15-0.16a5.381,5.381,0,0,0-2.07-8.04,4.193,4.193,0,0,0-.87-1.29,5.071,5.071,0,0,1-.41-0.5,4.269,4.269,0,0,0,.21-0.72,3.843,3.843,0,0,0-1.09-3.41,1.463,1.463,0,0,0-1.06-.4c-0.12,0-.24.01-0.36,0.02-0.05,0-.09.01-0.13,0.01,0-.03.02-0.06,0.02-0.09a6.824,6.824,0,0,1,4.72-5.78,0.534,0.534,0,0,0-.35-1.01,7.868,7.868,0,0,0-5.43,6.66h-0.01a2.59,2.59,0,0,0-1.03-.28,1.408,1.408,0,0,0-.54.11,3.807,3.807,0,0,0-2.21,2.81,3.929,3.929,0,0,0,.01,1.41,0.565,0.565,0,0,0-.25.16l-0.21.26a4.195,4.195,0,0,0-1.44,4.32,5.38,5.38,0,0,0-1.54,3.76,5.653,5.653,0,0,0,.04.59,1.046,1.046,0,0,0-.46.25,10.094,10.094,0,0,0-1.73,2.13,9.316,9.316,0,0,0-.78-1.22,1,1,0,0,0-.14-0.15,5.41,5.41,0,0,0,1.03-3.17,5.344,5.344,0,0,0-3.08-4.86,8.145,8.145,0,0,0-11.99,6.03,5.845,5.845,0,0,0,.04.59,1.02,1.02,0,0,0-.46.24,10,10,0,0,0-3.19,7.31c0,0.11.01,0.22,0.02,0.33-5.15-.03-10,0.53-11.07,4.54a6.2,6.2,0,0,0,1.23,5.49c4.43,5.79,19.39,9.66,37.28,9.66h0.53c18.56,0,33.71-5.62,37.68-11.08A4.5,4.5,0,0,0,1361.82,2158.8Zm-3.49-1.19c-1.54.2-4.33,0.56-7.77,0.96a4.3,4.3,0,0,0-.2-2.1C1354.43,2156.39,1356.9,2156.72,1358.33,2157.61Zm-8.07,2.07c2.53-.29,4.74-0.56,6.38-0.77a55.726,55.726,0,0,1-8.04,2.79A4.44,4.44,0,0,0,1350.26,2159.68Zm-15.6-17.22a4.47,4.47,0,0,1-.34-1.17,4.3,4.3,0,0,1,.83-3.18,4.235,4.235,0,0,1,2.83-1.66,3.9,3.9,0,0,1,.59-0.04,4.29,4.29,0,0,1,4.1,3.1,0.51,0.51,0,0,0,.38.37,4.285,4.285,0,0,1,3.2,3.59,4.334,4.334,0,0,1-.83,3.19,4.29,4.29,0,0,1-2.83,1.66,3.048,3.048,0,0,1-.32.02,0.542,0.542,0,0,0-.41.85,2.881,2.881,0,0,1,.5,1.29,2.937,2.937,0,0,1-.58,2.2,2.881,2.881,0,0,1-1.96,1.15,2.693,2.693,0,0,1-.4.03,2.982,2.982,0,0,1-2.94-2.58,3.23,3.23,0,0,1,.02-0.93,0.544,0.544,0,0,0-.32-0.59,4.294,4.294,0,0,1-2.08-1.86,1.088,1.088,0,0,0-.23-0.5,4.253,4.253,0,0,1-.27-1.02,4.3,4.3,0,0,1,.98-3.35A0.56,0.56,0,0,0,1334.66,2142.46Zm-1.02,6.65a5.414,5.414,0,0,0,1.75,1.47,4.078,4.078,0,0,0,4.02,4.36,4.907,4.907,0,0,0,.55-0.04,3.993,3.993,0,0,0,2.67-1.57,4.034,4.034,0,0,0,.79-3,3.848,3.848,0,0,0-.28-1.02,5.281,5.281,0,0,0,2.21-1.06h0.01a7.835,7.835,0,0,1,2.1,7.03,1.1,1.1,0,0,0,.3.99,2.3,2.3,0,0,1,.71,1.68,2.342,2.342,0,0,1-4.37,1.18,1.048,1.048,0,0,0-1.15-.5l-0.27.06a1.064,1.064,0,0,0-.83,1.21,4.64,4.64,0,0,1,.04.48,3.26,3.26,0,1,1-6.52,0,3.21,3.21,0,0,1,.06-0.6,1.068,1.068,0,0,0-.7-1.21,7.509,7.509,0,0,1-1.43-.66,7.757,7.757,0,0,1-1.12-3.11c-0.02-.12-0.02-0.23-0.03-0.34v-0.08c0-.27-0.01-0.55-0.03-0.82A7.9,7.9,0,0,1,1333.64,2149.11Zm12.06,13.32c-0.74.17-1.51,0.33-2.3,0.49a6.159,6.159,0,0,0,.44-1.1A4.493,4.493,0,0,0,1345.7,2162.43Zm-27.49-11.26c-0.01.11-.04,0.21-0.04,0.32a4.316,4.316,0,0,0,.1.88l-3.41,3.43a11.014,11.014,0,0,0,.16-1.42Zm7.9-.74a5.171,5.171,0,0,0,2.33-.75,0.01,0.01,0,0,0,.01.01c0.12,0.16.21,0.33,0.32,0.49l-2.83,2.84a4.1,4.1,0,0,0,.31-1.53A4.226,4.226,0,0,0,1326.11,2150.43Zm-1.17,9.17c-0.43.04-.88,0.07-1.34,0.09l6.32-6.36c0.02,0.12.05,0.24,0.06,0.36q0,0.405.03,0.81v0.01Zm4.82-3.32a7.816,7.816,0,0,1-1.21,2.66,11.228,11.228,0,0,1-1.88.44Zm-0.21-4.1-7.47,7.51c-0.4-.01-0.79-0.03-1.19-0.07l8.41-8.45a7.6,7.6,0,0,1,.36.94A0.413,0.413,0,0,0,1329.55,2152.18Zm-9.99,7.25c-0.35-.06-0.69-0.13-1.03-0.22l3.7-3.67a4.026,4.026,0,0,0,1.51-.3Zm-2.18-.59q-0.45-.18-0.87-0.39l3.53-3.55a3.772,3.772,0,0,0,.89.41Zm1.32-5.38a4.331,4.331,0,0,0,.53.74l-3.66,3.68c-0.12-.09-0.25-0.16-0.36-0.25-0.07-.16-0.13-0.31-0.19-0.47Zm1.38,8.25a21.119,21.119,0,0,0,2.69.17c0.99,0,1.89-.07,2.63-0.14,0.07-.01.14-0.02,0.23-0.03,2.24-.06,4.82-0.19,7.69-0.4a5.394,5.394,0,0,0,1.48,2.89,116.105,116.105,0,0,1-11.8.59,114.648,114.648,0,0,1-15.49-1.02,8.833,8.833,0,0,0,4.41-2.49C1314.98,2161.5,1317.72,2161.64,1320.08,2161.71Zm11.88-2.1a9.428,9.428,0,0,0,1.18.64c-1.05.07-2.07,0.14-3.04,0.19,0.01-.01.02-0.01,0.03-0.02a10.28,10.28,0,0,0,1.09-1.83c0.14,0.24.28,0.48,0.43,0.71A1.143,1.143,0,0,0,1331.96,2159.61Zm-11.5-23.09a2.744,2.744,0,0,1,1.58-2.02,0.309,0.309,0,0,1,.11-0.02,1.942,1.942,0,0,1,.61.2,3.944,3.944,0,0,0,.82.27,3.42,3.42,0,0,0,.85.02c0.1,0,.19-0.01.29-0.01a0.357,0.357,0,0,1,.31.09,2.734,2.734,0,0,1-1.89,4.69A2.722,2.722,0,0,1,1320.46,2136.52Zm-1.99,6.53a0.537,0.537,0,0,0,.15-0.55,3.224,3.224,0,0,1,1.15-3.65l0.03-.04c0.07,0.13.14,0.25,0.22,0.37a3.747,3.747,0,0,0,2.44,1.58,3.822,3.822,0,0,0,.68.06,3.773,3.773,0,0,0,2.94-1.41l0.18,0.21a2.741,2.741,0,0,1,.7,1.05,0.527,0.527,0,0,0,.33.42,4.3,4.3,0,0,1-1.6,8.29c-0.1,0-.2-0.01-0.32-0.02a0.541,0.541,0,0,0-.49.24,0.548,0.548,0,0,0-.03.54,2.9,2.9,0,0,1,.33,1.35,2.97,2.97,0,1,1-5.94,0,2.906,2.906,0,0,1,.15-0.92,0.547,0.547,0,0,0-.24-0.63,4.365,4.365,0,0,1-1.81-2.15,1.051,1.051,0,0,0-.16-0.5,4.083,4.083,0,0,1-.13-1.05A4.291,4.291,0,0,1,1318.47,2143.05Zm-1.75,5.9a5.432,5.432,0,0,0,1.02,1.23,0.391,0.391,0,0,0-.16.1l-2.61,2.62c-0.03-.27-0.06-0.54-0.11-0.81A7.857,7.857,0,0,1,1316.72,2148.95Zm-3.71,11.07a10.591,10.591,0,0,0,.62-0.92c0,0.01.01,0.01,0.01,0.02a9.489,9.489,0,0,0,2.02,1.32c-0.91-.05-1.85-0.11-2.84-0.17C1312.89,2160.17,1312.96,2160.09,1313.01,2160.02Zm-11.66-17.37a0.539,0.539,0,0,0,.16-0.56,4.1,4.1,0,0,1-.17-1.2,4.271,4.271,0,0,1,8.5-.63,0.551,0.551,0,0,0,.33.42,4.3,4.3,0,0,1-1.59,8.29c-0.11,0-.22-0.01-0.32-0.01a0.511,0.511,0,0,0-.49.24,0.523,0.523,0,0,0-.03.54,2.968,2.968,0,1,1-5.61,1.34,3.207,3.207,0,0,1,.14-0.92,0.533,0.533,0,0,0-.23-0.62,4.315,4.315,0,0,1-1.81-2.15,1.226,1.226,0,0,0-.16-0.5,4.089,4.089,0,0,1-.14-1.05A4.311,4.311,0,0,1,1301.35,2142.65Zm-4.46,14.72a1.065,1.065,0,0,0,.67-0.5,1.1,1.1,0,0,0,.12-0.83,7.676,7.676,0,0,1,1.93-7.49,5.4,5.4,0,0,0,1.54,1.69,4,4,0,0,0-.09.84,4.04,4.04,0,1,0,7.94-1.05,5.171,5.171,0,0,0,2.33-.75c0,0.01,0,.01.01,0.01a7.821,7.821,0,0,1,1.32,2.76,9.615,9.615,0,0,0-.29,2.34,10.133,10.133,0,0,0,.18,1.91,7.775,7.775,0,0,1-1.24,2.41c0,0.01-.03.04-0.03,0.05-0.52.7-2.41,2.99-5.14,2.99h0a10.69,10.69,0,0,1-4.91-2.02,1.058,1.058,0,0,0-1.02-.33,1.085,1.085,0,0,0-.79.72,2.125,2.125,0,0,1-2.03,1.49A2.151,2.151,0,0,1,1296.89,2157.37Zm5.62,5.58c-0.74-.15-1.44-0.29-2.12-0.44a3.7,3.7,0,0,0,.42-0.46A15.584,15.584,0,0,0,1302.51,2162.95Zm-8.19-6.48a4.126,4.126,0,0,0-1.03,1.76c-2.61-.28-4.43-0.46-5.62-0.57C1288.95,2156.88,1291.1,2156.5,1294.32,2156.47Zm-1.06,4.12c-1.95-.64-3.52-1.26-4.69-1.77,1.12,0.11,2.62.27,4.55,0.48,0,0.05-.01.1-0.01,0.16A4.666,4.666,0,0,0,1293.26,2160.59Zm0.63,1.33a4.234,4.234,0,0,0,5.31,1.43,106.053,106.053,0,0,0,23.8,2.51,117.846,117.846,0,0,0,13.07-.7,5.362,5.362,0,0,0,6.36-.93c9.14-1.67,14.54-4.16,16.6-5.26-3.36,2.92-13.5,9.63-35.82,9.63-22.39,0-32.89-6.57-36.35-9.38A50.169,50.169,0,0,0,1293.89,2161.92Zm65.3-.27c-3.57,4.92-18.31,10.2-35.96,10.2h-0.5c-17,0-31.62-3.62-35.6-8.82a4.121,4.121,0,0,1-.97-2.95c3.59,2.97,14.15,9.59,37.05,9.59,23,0,33.22-6.9,36.63-9.96A2.692,2.692,0,0,1,1359.19,2161.65Zm-55.09-22.14a0.559,0.559,0,0,0,.44-0.22l0.65-.89a0.536,0.536,0,1,0-.86-0.64l-0.65.89a0.531,0.531,0,0,0,.11.75A0.51,0.51,0,0,0,1304.1,2139.51Zm-0.08,2.43a0.544,0.544,0,0,0,.43-0.21l0.65-.89a0.536,0.536,0,1,0-.86-0.64l-0.65.89a0.532,0.532,0,0,0,.11.75A0.509,0.509,0,0,0,1304.02,2141.94Zm2.32-1.45a0.544,0.544,0,0,0,.43-0.21l0.65-.89a0.536,0.536,0,1,0-.86-0.64l-0.65.89a0.532,0.532,0,0,0,.11.75A0.55,0.55,0,0,0,1306.34,2140.49Zm30.54-.6a0.526,0.526,0,0,0,.43-0.22l0.65-.88a0.536,0.536,0,1,0-.86-0.64l-0.65.88a0.543,0.543,0,0,0,.11.76A0.528,0.528,0,0,0,1336.88,2139.89Zm-0.09,2.44a0.555,0.555,0,0,0,.43-0.22l0.65-.88a0.536,0.536,0,1,0-.86-0.64l-0.65.88a0.53,0.53,0,0,0,.11.75A0.5,0.5,0,0,0,1336.79,2142.33Zm2.32-1.45a0.526,0.526,0,0,0,.43-0.22l0.65-.88a0.543,0.543,0,0,0-.11-0.76,0.537,0.537,0,0,0-.74.11l-0.66.89a0.549,0.549,0,0,0,.11.75A0.562,0.562,0,0,0,1339.11,2140.88Z" transform="translate(-1284 -2127)"/>
</svg>
